<?xml version="1.0" encoding="UTF-8" standalone="no"?>
<!-- Created with Inkscape (http://www.inkscape.org/) -->

<svg
   version="1.1"
   id="svg2"
   width="3333.3333"
   height="3333.3333"
   viewBox="0 0 3333.3333 3333.3333"
   sodipodi:docname="bunny.eps"
   xmlns:inkscape="http://www.inkscape.org/namespaces/inkscape"
   xmlns:sodipodi="http://sodipodi.sourceforge.net/DTD/sodipodi-0.dtd"
   xmlns="http://www.w3.org/2000/svg"
   xmlns:svg="http://www.w3.org/2000/svg">
  <defs
     id="defs6" />
  <sodipodi:namedview
     id="namedview4"
     pagecolor="#ffffff"
     bordercolor="#000000"
     borderopacity="0.25"
     inkscape:showpageshadow="2"
     inkscape:pageopacity="0.0"
     inkscape:pagecheckerboard="0"
     inkscape:deskcolor="#d1d1d1" />
  <g id="Layer_2">
    <circle cx="1666.6666" cy="1666.6666" r="1666.6666" fill="#6fb2d2" />
  </g>
  <g
     id="g8"
     inkscape:groupmode="layer"
     inkscape:label="ink_ext_XXXXXX"
     transform="matrix(1.3333333,0,0,-1.3333333,0,3333.3333)">
    <g
       id="g10"
       transform="scale(0.1)">
<!--
      <path
         d="M 25000,0 H 0 V 25000 H 25000 V 0"
         style="fill:#6fb2d2;fill-opacity:1;fill-rule:nonzero;stroke:none"
         id="path12" />
-->
      <path
         d="m 18356.2,3509.2 c 0,-670 -2621.9,-1213.2 -5856.2,-1213.2 -3234.32,0 -5856.24,543.2 -5856.24,1213.2 0,670 2621.92,1213.1 5856.24,1213.1 3234.3,0 5856.2,-543.1 5856.2,-1213.1"
         style="fill:#578aa5;fill-opacity:1;fill-rule:nonzero;stroke:none"
         id="path14" />
      <path
         d="m 10477,12541.5 c 0,0 -594.09,-236 -907.46,-901.2 -270.27,147 -581.41,257.1 -848.07,243.7 -700.22,-54.3 -1439.9,-1236.1 -710.08,-1617.4 39.44,-256.5 379.7,-394.5 650.91,-157.8 98.63,-152.9 325.46,-130.7 325.46,-130.7 153.99,-547 691.96,-829.8 1185.04,-879.2 371,360.7 424.9,796.2 391.9,1130.1 406.6,141.8 1075.1,1968.3 -87.7,2312.5"
         style="fill:#fbf7f9;fill-opacity:1;fill-rule:nonzero;stroke:none"
         id="path16" />
      <path
         d="m 9608.21,10678.1 c -0.33,14.4 -1.63,29.6 -5.01,46.5 1.93,-15.4 3.54,-31 5.01,-46.5"
         style="fill:#fbf7f9;fill-opacity:1;fill-rule:nonzero;stroke:none"
         id="path18" />
      <path
         d="m 8137.8,10854.5 c 11.93,22.8 19.01,49.9 19.01,81.7 -6.57,-26.2 -13.13,-53.7 -19.01,-81.7"
         style="fill:#fbf7f9;fill-opacity:1;fill-rule:nonzero;stroke:none"
         id="path20" />
      <path
         d="m 9887.34,9854.6 668.36,1769.6 c 0,0 -528.6,-1010.2 -781.74,-1516.1 -58.72,-117.3 -213.3,-149.5 -311.47,-62.4 -14.54,12.9 -28.96,26.5 -43.24,40.8 219.23,137.3 242.75,336.5 217.94,666.2 3.14,-136.6 -145.7,-297.9 -245.66,-310.3 -246.94,-70.6 -650.17,46.4 -614.9,363.9 -273.66,-392.6 -663.92,-383.3 -565.75,120.8 -104.78,-83.5 -448.74,-315 -489.08,-41.3 -42.58,-249.7 31.64,-484.5 289.59,-619.2 39.44,-256.5 379.7,-394.5 650.91,-157.8 98.63,-152.9 325.46,-130.7 325.46,-130.7 153.99,-547 691.96,-829.8 1185.04,-879.2 302.8,294.4 394.3,638.6 399.8,936.8 -253.4,-134.4 -480.2,-200 -685.26,-181.1"
         style="fill:#c1aeb9;fill-opacity:1;fill-rule:nonzero;stroke:none"
         id="path22" />
      <path
         d="m 10497,12609.1 -23.4,6.9 -22.6,-8.9 c -27.4,-10.9 -626.83,-255.9 -946.56,-939.2 l 121.25,-74 c 263.12,571.8 747.61,822.4 855.61,872.4 601.7,-194.1 607.8,-806.1 556.9,-1156.8 -80.3,-552.7 -377.3,-1019 -521.4,-1019 h -0.1 c -5.3,0 -10.1,0.9 -14.7,2.6 -112.5,42.7 -235.5,115.8 -356.3,220.1 l -52.5,-140 c 121.9,-98.8 245.1,-169 358.8,-212.1 20.5,-7.8 42.3,-11.7 64.7,-11.7 0,0 0,0 0.1,0 279.1,0 584.5,612.7 661,1139.8 98.9,681.5 -149.2,1162.6 -680.8,1319.9"
         style="fill:#471836;fill-opacity:1;fill-rule:nonzero;stroke:none"
         id="path24" />
      <path
         d="m 10198.5,9025.5 -32.7,3.2 c -453.63,45.4 -1038.83,303 -1229.98,878.2 -71.85,2.7 -194.49,20.9 -283.74,104.7 -138.98,-95.5 -301.97,-121.3 -447.5,-68.1 -130.69,47.7 -224.18,149.8 -255.84,277.1 -248.03,144.3 -353.88,400.3 -290.88,707.8 92.77,452.8 565.01,987.7 1058.18,1025.9 484.29,24.6 1021.19,-376.7 1298.06,-618 0,0 -839.19,499.3 -1289.07,477.2 -386.53,-30 -838.89,-473.9 -928.92,-913.4 -37.28,-181.9 -24.51,-428.6 247.96,-571 l 31.63,-16.6 5.42,-35.2 c 14.14,-91.9 78.4,-167.1 171.88,-201.3 116.77,-42.6 252.4,-10.5 362.92,85.9 l 61.46,53.7 44.22,-68.6 c 73.64,-114.2 257.71,-98.8 259.5,-98.6 l 58.43,5.3 16.14,-56.5 c 149.05,-529.5 673.3,-773.1 1091.33,-824.4 633.2,646.4 225.3,1543 221,1552.1 l 127.9,59.7 c 4.7,-10.1 463.7,-1019.2 -273.9,-1736.2 l -23.5,-22.9"
         style="fill:#471836;fill-opacity:1;fill-rule:nonzero;stroke:none"
         id="path26" />
      <path
         d="m 8966.43,9907.2 c -18.25,0 -36.73,0.4 -55.5,1.2 l 6.2,141 c 221.6,-9.7 396.29,46.1 518.38,166.2 208.22,204.7 201.76,533.8 201.68,537.1 0,0 150.2,-388.1 -101.82,-636.8 -140.42,-138.6 -331.63,-208.7 -568.94,-208.7"
         style="fill:#471836;fill-opacity:1;fill-rule:nonzero;stroke:none"
         id="path28" />
      <path
         d="m 8627.34,10039.7 c -208.88,358.6 149.29,766.6 149.29,766.6 -1.82,-4.4 -181.09,-438.4 -28.16,-694.2 l -121.13,-72.4"
         style="fill:#471836;fill-opacity:1;fill-rule:nonzero;stroke:none"
         id="path30" />
      <path
         d="m 7948.05,10223.8 c -88.16,397.9 262.8,703.3 262.8,703.3 h 0.03 c -2.01,-3.6 -201.52,-362.6 -125.81,-669.6 l -137.02,-33.7"
         style="fill:#471836;fill-opacity:1;fill-rule:nonzero;stroke:none"
         id="path32" />
      <path
         d="m 9886.62,9047.5 c 0,0 -1207.05,-345.9 -1324.69,-1862.8 -77.43,-998.5 616.5,-1768.2 1382.48,-2008.2 -1198.28,-68 -1834.4,-893 -1321.56,-1400.9 34.52,-254.9 374.77,-453.7 818.58,-187.4 216.97,-246.6 871.57,-162.8 1325.17,148.9 483.3,303.5 1261.9,992.1 1261.9,1110.4 0,118.4 -1865.7,1231.5 -2141.88,4200"
         style="fill:#fbf7f9;fill-opacity:1;fill-rule:nonzero;stroke:none"
         id="path34" />
      <path
         d="m 9482.4,8888.5 c -751.13,-2277.1 186.62,-3337.7 754,-3719.8 155.2,-55.6 468,-67 585,-78.5 20,-11.6 38.4,-23.3 56.3,-35.1 l 579.2,590.3 c -608.5,831.7 -1541.78,2160.3 -1974.5,3243.1"
         style="fill:#c1aeb9;fill-opacity:1;fill-rule:nonzero;stroke:none"
         id="path36" />
      <path
         d="m 11647.6,5344.4 c 0,0 -173.5,-1000.1 -1469.9,-1499.4 -189.51,-72.9 -510.38,98.5 -248.35,334.4 -524.19,-58.4 -686.55,-437.2 -915.86,-252 -155.82,125.8 -32.85,359.2 160.4,500.1 -223.33,-46.3 -610.81,-251.4 -714.5,-122.7 -43.33,-185.5 5.2,-372.5 163.46,-529.2 34.52,-254.9 374.77,-453.7 818.58,-187.4 216.97,-246.6 871.57,-162.8 1325.17,148.9 483.3,303.5 1261.9,992.1 1261.9,1110.4 0,32.4 -233.9,321.2 -380.9,496.9"
         style="fill:#c1aeb9;fill-opacity:1;fill-rule:nonzero;stroke:none"
         id="path38" />
      <path
         d="m 9455.55,3678.9 38.84,-44.1 c 68.04,-77.3 200.64,-119.9 373.38,-119.9 0,0 0.05,0 0.07,0 278.06,0 607.06,107.4 858.86,280.4 473.7,297.5 1138.6,893.6 1224.4,1043.6 -23.1,24.6 -71.6,68.3 -118.8,110.8 -436.1,392.8 -1752.4,1578.4 -2007.04,4001.4 C 9558.31,8845.1 8728.34,8418 8632.27,7179.2 8556.84,6206.5 9245.88,5469.3 9965.51,5243.9 L 10335.2,5128 9948.41,5106.1 C 9164.53,5061.6 8673.94,4688.6 8549.87,4360.9 8475.33,4164 8517.74,3979 8672.49,3825.7 l 17.06,-16.9 3.22,-23.8 c 16.48,-121.7 131.22,-252.7 344.2,-252.7 114,0 241.29,40.3 368.16,116.4 z m 412.29,-305.2 c -0.05,0 -0.05,0 -0.09,0 -188.24,0 -337.93,43.7 -437.33,127 -134.59,-72.7 -266.71,-109.5 -393.45,-109.5 -241.66,0 -439.32,146.1 -480.01,350.8 -181.33,189.9 -230.78,426.6 -139.08,668.8 127.54,336.9 553.25,693.2 1237.48,805.2 -666.43,323.8 -1235.44,1050 -1163.78,1974.1 120.06,1547.9 1363.07,1921.6 1375.61,1925.3 l 81.8,23.4 7.87,-84.7 c 225.94,-2428.8 1538.54,-3611 1969.94,-3999.6 132.3,-119.2 172.3,-155.1 172.3,-207 0,-184.4 -890.4,-916.1 -1295,-1170.1 -271.5,-186.7 -631.2,-303.7 -936.26,-303.7"
         style="fill:#471836;fill-opacity:1;fill-rule:nonzero;stroke:none"
         id="path40" />
      <path
         d="m 10821.4,5090.2 c -600.4,20.1 -872.86,15.8 -876.99,15.8 v 141.1 c 4.15,0 876.99,-156.9 876.99,-156.9"
         style="fill:#471836;fill-opacity:1;fill-rule:nonzero;stroke:none"
         id="path42" />
      <path
         d="m 14855.9,9773.4 c -374.8,2071.1 -818.6,3126.4 -818.6,3126.4 0,0 -1505.7,745.9 -3241.5,-437.6 l -240.1,-838 c -140,-393.9 -344,-869.5 -640.88,-1693 C 9563.56,8957 9235.66,8195.5 9445.08,7031.7 9680.25,5724.8 11127.9,4714 11907,4654.9 c 3345.1,-207.1 3323.6,3047.4 2948.9,5118.5"
         style="fill:#fbf7f9;fill-opacity:1;fill-rule:nonzero;stroke:none"
         id="path44" />
      <path
         d="m 13420.4,9740 c 0,0 438.7,-140.7 684.4,-547.2 587.2,87 592.9,255.8 519.5,457.3 -73.4,201.4 -1203.9,89.9 -1203.9,89.9"
         style="fill:#c1aeb9;fill-opacity:1;fill-rule:nonzero;stroke:none"
         id="path46" />
      <path
         d="m 11782.2,6791.1 c -105.8,-317.5 -447.8,-643.8 -891.4,-608.5 -685.9,58.8 -1183.06,502.7 -1508.09,1534.5 121.73,-2116.6 1861.39,-3011.9 2524.29,-3062.2 890.9,-55.2 1542.9,135.3 2013.1,483.4 -125.2,55.6 -247.6,117.9 -365.8,188.8 -442.3,289.2 421.4,2402.2 343.2,3813.7 1679.4,68.5 -1185.8,-515.3 -2115.3,-2349.7"
         style="fill:#c1aeb9;fill-opacity:1;fill-rule:nonzero;stroke:none"
         id="path48" />
      <path
         d="m 11155.4,11853.5 c 76.5,-172.8 535,-255.8 767.2,-285.2 476.3,-47.1 691,79.4 937.4,183 517.9,0 971.5,96.6 1479.9,247.9 -184.8,639.3 -302.6,900.6 -302.6,900.6 0,0 -1505.7,745.9 -3241.5,-437.6 l -111,-387.4 c 100.3,-107.6 218.6,-151.8 470.6,-221.3"
         style="fill:#c1aeb9;fill-opacity:1;fill-rule:nonzero;stroke:none"
         id="path50" />
      <path
         d="m 12202.3,4575 c -97.6,-0.1 -197.4,3.1 -299.6,9.4 -423.3,32.2 -988.8,314.8 -1476.8,737.7 -569.07,493 -942.05,1095.8 -1050.27,1697.1 -197.42,1097.1 77.66,1851.4 396.14,2724.9 25.3,69.4 50.94,139.6 76.69,211.1 170.24,472.1 707.24,1669 707.24,1669 -60.3,-169.5 -404.9,-1246.5 -574.5,-1716.9 -25.81,-71.6 -51.49,-142 -76.85,-211.5 -324.33,-889.5 -580.51,-1592 -389.84,-2651.6 222.45,-1236.2 1607.99,-2259 2397.89,-2319 1011.4,-62.3 1782.3,195.4 2290.4,766.9 980.4,1102.6 786.5,3147.7 583.7,4268.7 -337.6,1865.3 -735.7,2914.1 -804.1,3086.4 -195.9,85.1 -1583.8,622.5 -3146.9,-443.3 l -79.4,116.6 c 913.2,622.6 1763.5,710.6 2315.9,674.7 600.6,-39 980.7,-224.3 996.6,-232.2 l 23.5,-11.6 10.2,-24.2 c 4.5,-10.7 451.1,-1086.2 823,-3141.2 207.4,-1146.3 403,-3240.5 -617,-4387.7 -486.5,-547 -1194,-823.3 -2106,-823.3"
         style="fill:#471836;fill-opacity:1;fill-rule:nonzero;stroke:none"
         id="path52" />
      <path
         d="m 16664.5,6999.4 c -49.9,1565.1 -1249.6,2522 -1249.6,2522 L 13897.5,9140.8 C 11361.9,7968.3 12392.2,5276 12930.3,4891.4 c 0,0 -1197.7,-122.2 -1679.1,-738.7 -481.4,-616.5 -216.1,-1023.3 68.6,-993.7 184.6,-382.7 668.7,-379 965.6,-239.9 478,-481 2169.3,80.5 2880.7,515.2 1055.5,606.6 823.1,1539.6 768.8,1753.4 313.4,328.1 766.1,664.8 729.6,1811.7"
         style="fill:#fbf7f9;fill-opacity:1;fill-rule:nonzero;stroke:none"
         id="path54" />
      <path
         d="m 16664.5,6999.4 c -49.9,1565.1 -1249.6,2522 -1249.6,2522 l -1310.1,-328.6 c 2769.1,-497.6 1936.6,-3521.8 1235.5,-4273.1 556.4,-452.9 -57.4,-1003.7 -304.3,-1180.1 -635,-423.4 -1455.2,-705.6 -2010.8,-635 -247,35.2 -688,269.2 -484.8,740.4 -482.4,-205.4 -442.5,-613.5 -758.2,-540.5 -356.3,82.3 -153.5,505.6 0,745.9 -344.5,-102.1 -472.1,-440 -784.3,-400.6 -62.8,-322.5 124.8,-511.3 321.9,-490.8 184.6,-382.7 668.7,-379 965.6,-239.9 478,-481 2169.3,80.5 2880.7,515.2 1055.5,606.6 823.1,1539.6 768.8,1753.4 313.4,328.1 766.1,664.8 729.6,1811.7"
         style="fill:#c1aeb9;fill-opacity:1;fill-rule:nonzero;stroke:none"
         id="path56" />
      <path
         d="m 12899.4,2665.1 c -259.4,0 -481.1,49.5 -627.8,171.1 -307,-124 -782,-121.6 -993.8,250.9 -124.9,4.5 -238.3,75.7 -303.6,193.8 -128.2,231.4 -45.4,573.6 221.4,915.2 395.7,506.8 1233,689.5 1576.9,744.8 -305.2,334.5 -700.3,1163.8 -613.8,2045.6 64.1,652.7 417.7,1556.4 1738.8,2154.3 0,0 -1507,-784.5 -1598.3,-2168.1 -92.9,-946.9 388.1,-1820.9 672.1,-2023.9 l 151.8,-108.5 -185.7,-19.1 c -11.7,-1.2 -1173.5,-126.6 -1630.6,-711.9 -342,-438.1 -246.6,-692.5 -209.2,-760 46.7,-84.4 126.9,-129.5 214.9,-120.1 l 49.3,5.1 21.5,-44.7 c 167,-346.1 610.5,-329.1 872.1,-206.6 l 45,21.1 35,-35.2 c 429.3,-432 2069.1,82.8 2793.9,525.6 664.4,381.9 918.7,961 737.2,1675.8 l -9.6,37.9 26.9,28.2 c 29.1,30.4 59.4,61 90.4,92.2 305.6,308.1 652,657.3 619.8,1668.5 -48.3,1512.7 -1211.4,2459.8 -1223.1,2469.2 l 88,110.3 c 12.3,-9.8 1225.8,-995.5 1276.1,-2575 34.2,-1071.9 -351.1,-1460.3 -660.6,-1772.4 -21,-21.1 -41.6,-41.9 -61.8,-62.6 177,-754.6 -110.1,-1390.4 -811.3,-1793.5 -469.1,-286.6 -1545.6,-708 -2301.9,-708"
         style="fill:#471836;fill-opacity:1;fill-rule:nonzero;stroke:none"
         id="path58" />
      <path
         d="m 15394.3,4919.7 c 0,0 334.4,144.8 597.8,433.1 l 104.2,-95.2 c -290.5,-317.9 -702,-337.9 -702,-337.9"
         style="fill:#471836;fill-opacity:1;fill-rule:nonzero;stroke:none"
         id="path60" />
      <path
         d="m 12725.8,4989.8 110.6,87.6 c 43.7,-55.1 139.9,-204 621.9,-378.2 0,0 -495.3,33.1 -732.5,290.6"
         style="fill:#471836;fill-opacity:1;fill-rule:nonzero;stroke:none"
         id="path62" />
      <path
         d="m 12221.2,2889.7 c -243.3,529.4 319.2,955.3 319.2,955.3 -4,-4.4 -395.3,-451.8 -190.9,-896.4 l -128.3,-58.9"
         style="fill:#471836;fill-opacity:1;fill-rule:nonzero;stroke:none"
         id="path64" />
      <path
         d="m 11265.6,3114.2 c -133.9,517.1 516.6,936.2 516.6,936.2 -4.9,-4.6 -492.7,-465.4 -380,-900.8 l -136.6,-35.4"
         style="fill:#471836;fill-opacity:1;fill-rule:nonzero;stroke:none"
         id="path66" />
      <path
         d="m 15980.2,11420.4 c -680.5,1114.5 -2011.9,1410.4 -2011.9,1410.4 l 236.6,-3376.4 c 0,0 861.4,-568.6 1647.1,-361.5 880.6,232.2 808.7,1213.1 128.2,2327.5"
         style="fill:#fbf7f9;fill-opacity:1;fill-rule:nonzero;stroke:none"
         id="path68" />
      <path
         d="m 16407.3,10508.5 c 20.8,-484.9 -98.4,-843.8 -489.4,-983.4 -583.1,-167.5 -1195.9,183.8 -1749.8,453.6 l 36.8,-524.3 c 0,0 861.4,-568.6 1647.1,-361.5 627.9,165.5 771.2,711.8 555.3,1415.6"
         style="fill:#c1aeb9;fill-opacity:1;fill-rule:nonzero;stroke:none"
         id="path70" />
      <path
         d="m 15106.5,12332.7 c -599.9,424.2 -1138.2,498.1 -1138.2,498.1 l 64.3,-917.5 c 0,0 381.6,81.3 1073.9,419.4"
         style="fill:#c1aeb9;fill-opacity:1;fill-rule:nonzero;stroke:none"
         id="path72" />
      <path
         d="m 15484.1,8976.6 c -674.2,-0.1 -1287.6,398.8 -1318.1,418.9 l 77.7,117.8 c 8.4,-5.5 844.8,-548.6 1590.3,-352.1 267.8,70.6 447.9,216.3 535.1,433.3 162.4,403.6 -1.3,1055.8 -449.1,1789.2 -657.3,1076.4 -1954,1375.3 -1967,1378.2 l 30.5,137.7 c 55.6,-12.3 1368.7,-315.3 2056.9,-1442.4 478.2,-783.2 641.5,-1463.4 459.7,-1915.4 -104.9,-260.5 -316.9,-434.5 -630.2,-517.1 -128.4,-33.8 -258.2,-48.1 -385.8,-48.1"
         style="fill:#471836;fill-opacity:1;fill-rule:nonzero;stroke:none"
         id="path74" />
      <path
         d="m 12824.2,11528.9 c -1075,-59.1 -1630.8,-1716 -795.7,-1923.1 147.4,-276.2 519.6,-326 746.4,-128.2 118.4,-226.9 720,-394.5 986.2,295.8 207.2,-197.2 555.9,-386.6 714.5,-469.3 l 554.7,1685.6 c 0,0 -1131.1,598.4 -2206.1,539.2"
         style="fill:#fbf7f9;fill-opacity:1;fill-rule:nonzero;stroke:none"
         id="path76" />
      <path
         d="m 13148.6,9695.6 c -176.4,35.3 -246.9,173.5 -288.6,421.1 -176.4,-105.9 -314,-338.7 -484.5,-307.1 -205.8,68.3 -230.6,218.2 -230.6,529.8 -186.9,-170.4 -331,-355.7 -506.7,-302.7 38.6,-210.2 162.7,-374.5 390.3,-430.9 147.4,-276.2 519.6,-326 746.4,-128.2 118.4,-226.9 720,-394.5 986.2,295.8 207.2,-197.2 555.9,-386.6 714.5,-469.3 l 148.7,451.8 c -314.9,154 -579,260.2 -903.9,381.9 -35.3,-246.9 -298.4,-487.7 -571.8,-442.2"
         style="fill:#c1aeb9;fill-opacity:1;fill-rule:nonzero;stroke:none"
         id="path78" />
      <path
         d="m 14007.3,11335.8 40.1,364.9 100.5,-352.6 z"
         style="fill:#471836;fill-opacity:1;fill-rule:nonzero;stroke:none"
         id="path80" />
      <path
         d="m 13170.2,9209.3 c -162.7,0 -320.4,66 -411.1,168.3 -119.7,-77.2 -268.6,-107.3 -411.8,-81 -154.2,28.4 -285.8,118.4 -365.5,248.8 -301,89.1 -458.6,365.6 -422.7,746.1 56.7,601.2 577.1,1270.2 1261.2,1307.9 1085,59.8 2164.6,-582.3 2210,-609.7 0,0 -1162.1,525.7 -2202.2,468.8 -611.6,-33.7 -1077.3,-637.5 -1128.5,-1180.2 -14.3,-152.3 -9.4,-515.9 345.9,-604 l 30.5,-7.6 14.8,-27.7 c 57,-106.9 159.8,-181.1 282,-203.6 127.4,-23.4 260.4,12.2 355.7,95.3 l 67.6,58.9 41.4,-79.4 c 44.6,-85.6 191.5,-168.8 358.3,-159.1 215.4,12.2 392.8,171.2 499.5,447.7 l 38,98.5 76.5,-72.8 c 142.1,-135.2 383.6,-293.6 698.5,-457.9 l -65.3,-125.1 c -277.4,144.8 -501.6,286.6 -655.6,414.4 -174.8,-366.4 -436.5,-437.4 -583.6,-445.7 -11.2,-0.6 -22.4,-0.9 -33.6,-0.9"
         style="fill:#471836;fill-opacity:1;fill-rule:nonzero;stroke:none"
         id="path82" />
      <path
         d="m 11999.5,9518.2 c -235.5,375.7 145.4,821.2 145.4,821.2 -2.1,-4.9 -199.6,-493.4 -29.1,-741.2 l -116.3,-80"
         style="fill:#471836;fill-opacity:1;fill-rule:nonzero;stroke:none"
         id="path84" />
      <path
         d="m 12739.2,9403 c -243.2,325 120.8,713.7 120.8,713.7 -47.7,-117.2 -142.3,-458.2 -9.9,-626.4 l -110.9,-87.3"
         style="fill:#471836;fill-opacity:1;fill-rule:nonzero;stroke:none"
         id="path86" />
      <path
         d="m 13784.2,9650.1 -121.3,72.1 c 65.2,109.5 63.6,337.2 57.5,415.6 0,0 186.7,-243.9 63.8,-487.7"
         style="fill:#471836;fill-opacity:1;fill-rule:nonzero;stroke:none"
         id="path88" />
      <path
         d="m 9428.84,3502.7 c -154.9,584.8 500.51,676.7 500.51,676.7 h 0.14 c -20.4,-7.6 -498.01,-191.4 -365.43,-636.3 l -135.22,-40.4"
         style="fill:#471836;fill-opacity:1;fill-rule:nonzero;stroke:none"
         id="path90" />
      <path
         d="m 8572.91,3681.4 c -100.36,536.5 600.98,736.2 600.98,736.2 -5.44,-2.8 -543.02,-278.6 -462.28,-710.2 l -138.7,-26"
         style="fill:#471836;fill-opacity:1;fill-rule:nonzero;stroke:none"
         id="path92" />
      <path
         d="m 12120.7,17459.9 c 0,0 -426.6,2430.9 -648.9,2848.7 -552.7,1288.4 -1335.7,1767.8 -1771.56,1941.6 -171.41,68.3 -362,-36.5 -397.45,-217.6 -103.2,-527.2 -314.94,-1387 206.1,-2493.3 446.53,-948.2 1547.41,-2624.6 1547.41,-2624.6 l 1064.4,545.2"
         style="fill:#fbf7f9;fill-opacity:1;fill-rule:nonzero;stroke:none"
         id="path94" />
      <path
         d="m 11471.8,20308.6 c -552.7,1288.4 -1335.7,1767.8 -1771.56,1941.6 -87.79,35 -180.47,24.4 -254.91,-18.5 439.69,-180.8 1206.17,-665 1750.07,-1932.7 222.3,-417.8 648.8,-2848.6 648.8,-2848.6 l -852.4,-436.7 c 41.1,-63.4 64.5,-99 64.5,-99 l 1064.4,545.2 c 0,0 -426.6,2430.9 -648.9,2848.7"
         style="fill:#c1aeb9;fill-opacity:1;fill-rule:nonzero;stroke:none"
         id="path96" />
      <path
         d="m 11357,18604.7 c -100.4,693.4 -463.6,2198.6 -1638.78,3052.8 -69.36,50.5 -167.56,6.2 -174.62,-79.2 -68.14,-824.9 -45.69,-2166.9 1202.8,-3285.2 131.8,-118.1 636,136.5 610.6,311.6"
         style="fill:#ff6c9c;fill-opacity:1;fill-rule:nonzero;stroke:none"
         id="path98" />
      <path
         d="M 10915.1,18436.6 C 9715.67,19511 9647.92,20791.5 9704.86,21622 c -8.12,6 -15.87,12.3 -24.07,18.3 -69.36,50.4 -167.56,6.1 -174.62,-79.3 -68.14,-824.9 -45.69,-2166.9 1202.83,-3285.2 107.6,-96.4 463.1,55.6 576.4,209.9 -140.8,-72.9 -303.4,-109 -370.3,-49.1"
         style="fill:#cb3b75;fill-opacity:1;fill-rule:nonzero;stroke:none"
         id="path100" />
      <path
         d="m 9653.52,21609.7 c -18.42,0 -39.05,-13 -41.04,-37.1 -71.69,-867.8 -27.35,-2146.5 1180.02,-3228 8.8,-7.9 29.1,-12.6 54.3,-12.6 v 0 c 120.2,0 322.3,97.3 408.2,196.5 27.3,31.6 35.3,55 33.6,66.3 -89.3,616.9 -425.2,2144.9 -1611,3006.9 -7.38,5.3 -15.47,8 -24.08,8 z m 1193.28,-3415.9 v 0 c -61.8,0 -111.1,16.1 -146.5,47.8 -1253.26,1122.6 -1299.67,2445.2 -1225.56,3342.3 7.71,93.5 84.57,164 178.78,164 37.86,0 74.28,-11.9 105.32,-34.5 1228.36,-892.9 1574.66,-2464.5 1666.56,-3098.8 8.3,-57 -13.9,-116.5 -66,-176.6 -112.6,-130.1 -352.1,-244.2 -512.6,-244.2"
         style="fill:#471836;fill-opacity:1;fill-rule:nonzero;stroke:none"
         id="path102" />
      <path
         d="m 9514.07,22193.8 c -77.29,-27.8 -132.86,-92.7 -148.65,-173.4 -5.3,-27 -10.87,-54.9 -16.61,-83.6 -106.59,-533.4 -267.67,-1339.6 217.79,-2370.4 397.51,-844 1329.1,-2288 1511.7,-2568.8 l 971.4,497.6 c -60.3,337.7 -435.8,2410.5 -634.2,2783.4 l -2.3,4.8 c -547.1,1275.3 -1322.9,1742.5 -1736.59,1907.5 -52.26,20.9 -109.98,21.9 -162.54,2.9 z m 1520.33,-5362 -31.5,47.9 c -11,16.7 -1108.4,1691.1 -1551.73,2632.4 -503.39,1068.9 -337.35,1899.8 -227.47,2449.7 5.7,28.5 11.23,56.2 16.49,83.1 24.5,125.2 110.7,225.7 230.6,269 81.94,29.5 171.82,28 253.09,-4.5 431.82,-172.2 1240.32,-657.5 1805.52,-1973.3 224.8,-428.3 636.7,-2765.7 654.2,-2865.1 l 8.1,-46.4 -1157.3,-592.8"
         style="fill:#471836;fill-opacity:1;fill-rule:nonzero;stroke:none"
         id="path104" />
      <path
         d="m 16012.6,14951.3 c 54.5,850.8 -123.6,1535.3 -426.5,2218.7 -755,1702.9 -2480.2,1814.5 -3041.7,1843.6 -625.9,32.4 -2077,-199.3 -2876.02,-1541.9 -382.3,-642.3 -669.88,-1303.9 -703.52,-2155.7 -502.06,-352.7 -761.47,-947.9 -712.44,-1068.4 42.84,-52.5 258.95,169.9 258.95,169.9 -80.96,-247.3 -175.12,-654.9 -37.1,-716.9 57.35,-8.7 92.43,174 263.82,335.1 C 8897.75,12745 10718,12025 11255.7,12011.6 c 97.2,-84.1 433.4,-242.3 776.7,-260 343.4,-17.8 694.1,104.9 799.4,178.5 536.2,-42.2 2982.2,457 3274.3,1724.3 153.8,-177.9 169.8,-363.3 227.8,-360.5 143.6,47.4 92.1,462.5 37.1,716.9 0,0 192,-243.5 240,-195.7 61.2,114.8 -135.4,733.6 -598.4,1136.2"
         style="fill:#fbf7f9;fill-opacity:1;fill-rule:nonzero;stroke:none"
         id="path106" />
      <path
         d="m 16012.6,14951.3 c 37,-160.7 121.2,-299.9 184.7,-486 -71.1,40.3 -137.9,73.4 -240.9,115.3 65.4,-149.6 165.7,-331.5 148.3,-550 -93.5,52.9 -198.7,135.6 -300.8,198.4 49,-659 -789.3,-1450.1 -2008.2,-1767.6 -701,-104.7 -1001.6,-104.7 -1001.6,-104.7 -197.5,-286.5 -1156.3,-216.7 -1421.2,12.6 -334,21.9 -1763.66,82.3 -2569.09,1376.6 104.28,-386 329.11,-1226.7 2451.89,-1734.3 134.5,-265.3 1169.2,-358.4 1576.1,-81.5 305.6,-36.1 913.9,89 913.9,89 848.2,171.2 2139.5,676.8 2360.4,1635.3 153.8,-177.9 169.8,-363.3 227.8,-360.5 143.7,47.4 92.1,462.5 37.1,716.9 0,0 192,-243.5 240,-195.7 61.2,114.8 -135.4,733.6 -598.4,1136.2"
         style="fill:#c1aeb9;fill-opacity:1;fill-rule:nonzero;stroke:none"
         id="path108" />
      <path
         d="m 8789.96,14179.2 16.7,-135.1 c 152.35,-1231.5 1899.44,-1949.7 2450.74,-1963.4 l 24.8,-0.6 18.7,-16.2 c 90.6,-78.4 413.7,-226.7 735.1,-243.3 336.6,-17.2 669.6,105.6 756.2,166.1 l 20.3,14.2 24.7,-1.9 c 18.9,-1.5 40.8,-2.3 65.2,-2.3 282.8,0 998.5,109 1714.7,401.4 568.3,232 1276.2,641 1421.6,1271.8 l 30.6,132.6 89,-102.9 c 88.1,-101.8 135,-207.1 166,-276.7 4.2,-9.5 8.7,-19.8 13.3,-29.6 29.5,79.7 32.8,293.1 -34.2,602.9 l -63,291.6 184.8,-234.2 c 41.7,-52.9 89.6,-104.8 126.3,-138.7 -22.8,181.2 -194.8,645.6 -584.2,984.3 l -25.8,22.4 2.2,34.2 c 47.8,747.5 -81.9,1421.8 -420.8,2186.2 -496.3,1119.4 -1499.7,1725.9 -2982.1,1802.6 -34.8,1.8 -71.7,2.7 -109.7,2.7 -301.2,0 -1847.5,-72.9 -2703.34,-1510.9 -323.07,-542.9 -658.16,-1219.7 -693.84,-2123.1 l -1.36,-34.2 -27.97,-19.6 c -421.75,-296.3 -640.75,-739.8 -682.43,-918.5 40.05,29.9 92.86,76.5 139.66,124.7 l 208.04,213.8 -92.81,-283.5 c -98.58,-301.2 -117.32,-513.8 -96.16,-596.1 5.46,9.2 11.08,19 16.26,28 38.01,66.1 95.47,165.9 193.61,258.1 z m 3310.74,-2498.5 c -23.9,0 -47.9,0.6 -71.8,1.8 -353,18.3 -678.1,170.7 -798.6,261 -298.9,16.6 -883.5,208.4 -1412.11,542.7 -442.02,279.7 -979.66,742.5 -1123.7,1395.5 -32.6,-44.6 -57.19,-87.4 -77.55,-122.8 -41.07,-71.3 -73.5,-127.7 -138.7,-127.7 -4.78,0 -9.57,0.4 -14.41,1.1 l -9.3,1.4 -8.55,3.9 c -148.85,66.8 -123.11,335.5 -64.95,575.9 -40.05,-26.1 -78.18,-43 -109.72,-43 -29.11,0 -54.84,11.8 -72.42,33.4 l -6.56,8 -3.92,9.7 c -66.47,163.4 213.37,768.1 708.89,1131 43.74,917.4 383.76,1603.4 711.69,2154.5 894.11,1502.3 2507.71,1578.4 2822.11,1578.4 40.3,0 79.6,-1 116.8,-2.9 253.9,-13.2 848.6,-43.9 1471,-299.2 752.2,-308.5 1300.7,-841.9 1630.3,-1585.4 343.3,-774.3 477.8,-1459.8 434.5,-2217.3 455.4,-412.1 671.3,-1042.4 588.3,-1198.2 l -4.9,-9.1 -7.4,-7.3 c -17.1,-17 -40.1,-26.4 -64.8,-26.4 v 0 c -31.8,0 -70.3,18.3 -115.3,54.6 33,-245.1 30.8,-514.9 -124.1,-566 l -8.9,-2.9 -14,-0.6 c -71.5,0 -100.7,65.7 -134.6,141.9 -16.9,37.9 -37.4,83.8 -65.9,132.5 -220.3,-608.4 -905.7,-1001.7 -1462.7,-1229 -654.9,-267.4 -1399.2,-411.7 -1767,-411.7 -18.6,0 -36,0.4 -52.3,1.2 -131.2,-79.2 -444.4,-179 -749.4,-179"
         style="fill:#471836;fill-opacity:1;fill-rule:nonzero;stroke:none"
         id="path110" />
      <path
         d="m 11461.1,15879.2 c -33.5,-422.5 -304.3,-745.5 -604.7,-721.7 -300.5,23.9 -516.8,385.7 -483.2,808.1 33.6,422.4 304.3,745.5 604.8,721.6 300.4,-23.8 516.7,-385.6 483.1,-808"
         style="fill:#471836;fill-opacity:1;fill-rule:nonzero;stroke:none"
         id="path112" />
      <path
         d="m 10980.1,16130.8 c -10.8,-98 -84,-170.4 -163.4,-161.6 -79.3,8.8 -134.9,95.5 -124,193.5 10.8,98.1 84,170.4 163.4,161.6 79.4,-8.8 134.9,-95.4 124,-193.5"
         style="fill:#e1dddf;fill-opacity:1;fill-rule:nonzero;stroke:none"
         id="path114" />
      <path
         d="m 11521.7,16879.1 c 24,-1.8 48.7,7.9 67.1,28.8 33.4,37.9 36,101.6 0.3,135.4 -713.3,675.2 -1206.3,119.7 -1394.4,-162.3 0,0 626.6,689.6 1273.5,24.9 15.5,-15.8 34,-25.4 53.5,-26.8"
         style="fill:#471836;fill-opacity:1;fill-rule:nonzero;stroke:none"
         id="path116" />
      <path
         d="m 13347.4,15811.5 c -10.3,-423.6 225.7,-772.9 527,-780.1 301.3,-7.3 553.8,330.2 564,753.9 10.2,423.6 -225.8,772.9 -527,780.1 -301.3,7.3 -553.8,-330.2 -564,-753.9"
         style="fill:#471836;fill-opacity:1;fill-rule:nonzero;stroke:none"
         id="path118" />
      <path
         d="m 13580.4,16026.3 c 0.7,-98.7 66,-178.2 145.9,-177.6 79.9,0.5 144.1,81 143.4,179.6 -0.7,98.6 -66,178.2 -145.9,177.6 -79.9,-0.5 -144.1,-81 -143.4,-179.6"
         style="fill:#e1dddf;fill-opacity:1;fill-rule:nonzero;stroke:none"
         id="path120" />
      <path
         d="m 13390.3,16812.4 c -24,0.7 -47.6,12.9 -63.7,35.6 -29.4,41.1 -25.4,104.8 13.6,134.7 779.2,598 1212.2,-5.5 1370.2,-305.4 0,0 -552,750.6 -1264.1,156.3 -17,-14.2 -36.5,-21.8 -56,-21.2"
         style="fill:#471836;fill-opacity:1;fill-rule:nonzero;stroke:none"
         id="path122" />
      <path
         d="m 12210.5,14322.8 c -415.4,14.3 -619.6,-177.1 -452.6,-274.3 95,-55.3 216.6,-111.1 303.8,-148.9 73,-31.7 153.5,-37.9 230.5,-17.9 92,23.9 220.8,60.2 323.2,100.2 179.9,70.2 7.8,290.8 -404.9,340.9"
         style="fill:#471836;fill-opacity:1;fill-rule:nonzero;stroke:none"
         id="path124" />
      <path
         d="m 12017.6,14260.2 c -62.5,-0.4 -113.2,-23 -113.3,-50.5 -0.1,-27.5 50.5,-49.5 113,-49.1 62.5,0.5 113.3,23.1 113.3,50.6 0.1,27.5 -50.5,49.4 -113,49"
         style="fill:#fdf3ef;fill-opacity:1;fill-rule:nonzero;stroke:none"
         id="path126" />
      <path
         d="m 12739.5,13426.5 c -34.3,-76.8 -109.7,-203 -234.1,-295.5 -98.7,-73.4 -228.6,-125.4 -392.8,-113.2 -173.7,13 -296.5,83.7 -383.3,170.9 -108.9,109.9 -160.8,245.5 -183.4,326.5 239.4,-26.3 480,21.2 608.7,131.5 l 0.1,2 c 0.4,-0.4 0.7,-0.7 1,-1.1 0.3,0.3 0.7,0.6 1.1,1 l -0.2,-2.1 c 111.4,-128.1 342.2,-210.7 582.9,-220"
         style="fill:#471836;fill-opacity:1;fill-rule:nonzero;stroke:none"
         id="path128" />
      <path
         d="m 12630.3,13367.3 c -16.8,-134.7 -149.2,-360.1 -475.4,-352.6 -174.1,4 -296.4,83.7 -383.3,170.8 -112.4,89.9 535.7,451.4 858.7,181.8"
         style="fill:#ff6c9c;fill-opacity:1;fill-rule:nonzero;stroke:none"
         id="path130" />
      <path
         d="m 11643.9,13440.6 c 27,-63.7 69.2,-139.2 133.6,-204.1 89.7,-90 204.2,-140.8 340.1,-150.9 128.4,-9.6 245.2,24 347.3,99.9 75.8,56.4 130,126.1 165.4,181.8 -194.6,24 -364.8,90.7 -475.5,185.8 l -6.6,-6.2 -5.5,7.1 c -123.7,-77.9 -302.2,-118.7 -498.8,-113.4 z m 463.7,-490.5 c -169.5,12.6 -312.9,76.8 -426.4,190.6 -122.8,123.9 -178.5,276.4 -200.7,356.3 l -27,96.7 99.8,-11 c 211.1,-23.1 420.6,16.5 535.8,98.9 l 75.3,59.1 62.2,-69.3 c 95.6,-92.4 278.3,-160.1 476.2,-174.8 v 0 c 13.1,-1 26.2,-1.8 39.4,-2.3 l 100.3,-3.9 -41,-91.6 c -26.6,-59.5 -104.7,-210 -255.6,-322.3 -129.1,-95.9 -276.5,-138.4 -438.3,-126.4"
         style="fill:#471836;fill-opacity:1;fill-rule:nonzero;stroke:none"
         id="path132" />
      <path
         d="m 12168.5,13804.3 c 0,0.1 0,0.6 0,0.5 -0.1,-0.1 -0.3,-0.1 -0.5,-0.2 -0.1,0.1 -0.3,0.2 -0.5,0.2 0.1,0.1 0,-0.3 0,-0.4 -656,-257.2 -1063.6,76.7 -1063.6,76.7 302.2,-648 1044.5,-237.2 1052.5,-232.8 7.3,-5.6 680.6,-521.6 1075.3,74.5 0,0 -452.5,-269.9 -1063.2,81.5"
         style="fill:#c1aeb9;fill-opacity:1;fill-rule:nonzero;stroke:none"
         id="path134" />
      <path
         d="m 12211.7,13730.3 -40,74.2 0.3,4 h -0.7 l -1,-1.4 -0.8,1.6 h -0.7 l -0.3,-3.9 -50.5,-67.6 c -144.3,-171.6 -784,-271.3 -1014.1,143.8 95.2,-575.9 931.6,-441.8 1056.5,-303.1 103.1,-155.6 882,-420.5 1075.4,144.6 -282.7,-396.9 -906.9,-183.3 -1024.1,7.8"
         style="fill:#471836;fill-opacity:1;fill-rule:nonzero;stroke:none"
         id="path136" />
      <path
         d="m 12216.2,13679.9 -113.3,8.4 24.7,331.7 113.2,-8.4 -24.6,-331.7"
         style="fill:#471836;fill-opacity:1;fill-rule:nonzero;stroke:none"
         id="path138" />
      <path
         d="m 10746.3,14632.4 c -4.5,-120.9 -241,-210.2 -528.2,-199.5 -287.24,10.8 -516.39,117.6 -511.85,238.5 4.53,121 241.04,210.2 528.25,199.5 287.2,-10.8 516.4,-117.6 511.8,-238.5"
         style="fill:#f8bcb1;fill-opacity:1;fill-rule:nonzero;stroke:none"
         id="path140" />
      <path
         d="m 14821.2,14419 c -4.5,-120.9 -241,-210.2 -528.3,-199.4 -287.2,10.8 -516.3,117.5 -511.8,238.5 4.6,120.9 241.1,210.2 528.3,199.4 287.2,-10.8 516.3,-117.6 511.8,-238.5"
         style="fill:#f8bcb1;fill-opacity:1;fill-rule:nonzero;stroke:none"
         id="path142" />
      <path
         d="m 16919,22037.8 c -2601.5,-431.6 -3256,-3604.5 -3256,-3604.5 l 1044.1,-623.4 c 1037.4,318.1 1519.6,923.8 1872.8,1497.8 446.1,725.1 613.6,1658.2 652.8,2059 47.2,482.1 216.8,743.1 -313.7,671.1"
         style="fill:#fbf7f9;fill-opacity:1;fill-rule:nonzero;stroke:none"
         id="path144" />
      <path
         d="m 17144.7,22044.4 c 28.6,-422 -311.7,-1845.1 -834.9,-2656.1 -402.6,-597.3 -1018,-1220.2 -1602.7,-1578.4 917,330.2 1540.2,957.4 1872.8,1497.8 446.1,725.1 613.6,1658.2 652.8,2059 38.6,393.9 158.7,640.1 -88,677.7"
         style="fill:#c1aeb9;fill-opacity:1;fill-rule:nonzero;stroke:none"
         id="path146" />
      <path
         d="m 14707.1,17809.9 c 0,0 1160.3,403.2 1818.5,1531.2 514.1,835.5 631.9,1911.9 643.7,2031.8 9.5,97 23.8,184.8 36.3,262.3 24.9,152.7 44.5,273.3 2,316.9 -34.5,35.5 -128.7,43 -280,22.5 -1315.6,-218.3 -2098.5,-1172.5 -2523.3,-1934.6 -463.5,-831.4 -741.3,-1606.7 -741.3,-1606.7 1.6,8.1 155.4,816.2 628.1,1665.6 628.9,1129.8 1534,1822 2617.5,2001.8 206.2,28 322.4,10.1 390.4,-59.6 87.2,-89.6 64.3,-230.9 32.5,-426.4 -12.3,-75.6 -26.2,-161.3 -35.3,-254.2 -12.1,-122.9 -132.9,-1226.3 -662,-2086.2 -331.4,-538.4 -849.8,-1191.5 -1927.1,-1464.4"
         style="fill:#471836;fill-opacity:1;fill-rule:nonzero;stroke:none"
         id="path148" />
      <path
         d="m 14471.3,18760.8 c 151.6,681.3 818.3,2149.5 2152.9,2723.6 78.8,33.9 164.8,-30.9 152.9,-115.8 -115.5,-819.6 -453.6,-2278.1 -2011.6,-2866.6 -165.5,-62.5 -332.7,86 -294.2,258.8"
         style="fill:#ff6c9c;fill-opacity:1;fill-rule:nonzero;stroke:none"
         id="path150" />
      <path
         d="m 14615.5,18642.4 c 151.7,681.4 818.3,2149.6 2153,2723.8 2.9,1.2 5.7,2 8.6,3 11.5,84.6 -74.3,149.1 -152.9,115.2 -1334.6,-574.1 -2001.3,-2042.3 -2152.9,-2723.6 -27.9,-125.1 52.3,-237.1 161.4,-265.8 -21.2,43.2 -29,94.1 -17.2,147.4"
         style="fill:#cb3b75;fill-opacity:1;fill-rule:nonzero;stroke:none"
         id="path152" />
      <path
         d="m 16665.3,21429.8 c -5.3,-0.4 -10.7,-1.7 -15.9,-3.9 -1378.6,-593 -1994.8,-2134.9 -2115.9,-2679 -11.2,-50.1 1.4,-101 34.4,-139.6 43.1,-50.3 112.7,-69.1 175.1,-45.6 1118.9,422.7 1763.7,1343.7 1970.9,2815.8 2.5,17.7 -4.8,29.9 -11.4,37 -9.6,10.4 -23.6,16.1 -37.2,15.3 z m -1960.5,-3005.5 c -87.9,-5.6 -175.3,31.8 -233.7,100.1 -59.4,69.4 -82,160.6 -62.1,250.2 180.8,811.9 913.1,2219.1 2190,2768.4 67.7,29.1 147.4,11.8 197,-41.8 35.4,-38.1 51.5,-89.7 44.2,-141.4 -86.1,-611.2 -240.4,-1115.4 -471.9,-1541.6 -353.3,-650.3 -885,-1113.2 -1580.3,-1375.8 -27,-10.2 -55,-16.3 -83.2,-18.1"
         style="fill:#471836;fill-opacity:1;fill-rule:nonzero;stroke:none"
         id="path154" />
    </g>
  </g>
</svg>
